999
DXF file: maq_side.dxf
999
Pro/ENGINEER 2022014 by Parametric Technology Corporation
  0
SECTION
  2
HEADER
  9
$ACADVER
  1
AC1032
  9
$DWGCODEPAGE
  3
ANSI_1252
  9
$EXTMAX
 10
22.0
 20
17.0
 30
0.0
  9
$EXTMIN
 10
0.0
 20
0.0
 30
0.0
  9
$LIMMIN
 10
0.0
 20
0.0
  9
$LIMMAX
 10
22.0
 20
17.0
  9
$VIEWCTR
 10
11.0
 20
8.5
  9
$VIEWSIZE
 40
17.0
  9
$CLAYER
  8
0
  9
$LTSCALE
 40
1.21
  9
$CELTYPE
  6
BYLAYER
  9
$DIMSCALE
 40
1.0
  9
$DIMASZ
 40
0.1875
  9
$DIMEXO
 40
0.0625
  9
$DIMDLI
 40
0.836
  9
$DIMEXE
 40
0.125
  9
$DIMCEN
 40
0.198
  9
$DIMLFAC
 40
1.0
  9
$DIMBLK
  1
_FILLED
  9
$DIMALT
 70
0
  9
$DIMALTF
 40
25.4
  9
$DIMTXT
 40
0.15625
  9
$DIMTOL
 70
0
  9
$DIMLIM
 70
0
  9
$DIMTFAC
 40
1.0
  9
$DIMGAP
 40
0.09
  9
$DIMDSEP
 70
46
  9
$AUNITS
 70
0
  9
$PDMODE
 70
3
  9
$PDSIZE
 40
0.3125
  9
$HANDSEED
  5
285
  9
$TILEMODE
 70
1
  9
$MEASUREMENT
 70
0
  9
$INSUNITS
 70
1
  0
ENDSEC
  0
SECTION
  2
CLASSES
  0
CLASS
  1
ACDBDICTIONARYWDFLT
  2
AcDbDictionaryWithDefault
  3
AutoCAD 2000
 90
0
 91
1
280
0
281
0
  0
CLASS
  1
ACDBPLACEHOLDER
  2
AcDbPlaceHolder
  3
AutoCAD 2000
 90
0
 91
1
280
0
281
0
  0
CLASS
  1
LAYOUT
  2
AcDbLayout
  3
AutoCAD 2000
 90
0
 91
0
280
0
281
0
  0
ENDSEC
  0
SECTION
  2
TABLES
  0
TABLE
  2
VPORT
  5
8
100
AcDbSymbolTable
 70
2
  0
VPORT
  5
1F4
100
AcDbSymbolTableRecord
100
AcDbViewportTableRecord
  2
*ACTIVE
 70
0
 10
0.0
 20
0.0
 11
1.0
 21
1.0
 12
11.0
 22
8.5
 13
0.0
 23
0.0
 14
1.0
 24
1.0
 15
0.0
 25
0.0
 16
0.0
 26
0.0
 36
1.0
 17
0.0
 27
0.0
 37
0.0
 40
17.0
 41
1.2941176471
 42
50.0
 43
0.0
 44
0.0
 50
0.0
 51
0.0
 71
0
 72
100
 73
1
 74
1
 75
0
 76
0
 77
0
 78
0
  0
ENDTAB
  0
TABLE
  2
LTYPE
  5
5
100
AcDbSymbolTable
 70
6
  0
LTYPE
  5
14
100
AcDbSymbolTableRecord
100
AcDbLinetypeTableRecord
  2
BYBLOCK
 70
0
  3

 72
65
 73
0
 40
0.0
  0
LTYPE
  5
15
100
AcDbSymbolTableRecord
100
AcDbLinetypeTableRecord
  2
BYLAYER
 70
0
  3

 72
65
 73
0
 40
0.0
  0
LTYPE
  5
16
100
AcDbSymbolTableRecord
100
AcDbLinetypeTableRecord
  2
CONTINUOUS
 70
64
  3
Solid line
 72
65
 73
0
 40
0.0
  0
LTYPE
  5
1F5
100
AcDbSymbolTableRecord
100
AcDbLinetypeTableRecord
  2
CENTER
 70
64
  3
____ _ ____ _ ____ _ ____ _ ____ _ ____ _ ____
 72
65
 73
4
 40
0.6
 49
0.375
 74
0
 49
-0.075
 74
0
 49
0.075
 74
0
 49
-0.075
 74
0
  0
LTYPE
  5
1F6
100
AcDbSymbolTableRecord
100
AcDbLinetypeTableRecord
  2
HIDDEN
 70
64
  3
- - - - - - - - - - - - - - - - - - - -
 72
65
 73
2
 40
0.2
 49
0.1
 74
0
 49
-0.1
 74
0
  0
LTYPE
  5
1F7
100
AcDbSymbolTableRecord
100
AcDbLinetypeTableRecord
  2
PHANTOM
 70
64
  3
_____ _ _ _____ _ _ _____ _ _ _____
 72
65
 73
6
 40
0.8
 49
0.45
 74
0
 49
-0.05
 74
0
 49
0.1
 74
0
 49
-0.05
 74
0
 49
0.1
 74
0
 49
-0.05
 74
0
  0
LTYPE
  5
1F8
100
AcDbSymbolTableRecord
100
AcDbLinetypeTableRecord
  2
DOT
 70
64
  3
. . . . . . . . . . . . . . . . . . . .
 72
65
 73
2
 40
0.2
 49
0.1
 74
0
 49
-0.1
 74
0
  0
LTYPE
  5
1F9
100
AcDbSymbolTableRecord
100
AcDbLinetypeTableRecord
  2
DASHED
 70
64
  3
- - - - - - - - - - - - - - - - - - - -
 72
65
 73
2
 40
0.2
 49
0.1
 74
0
 49
-0.1
 74
0
  0
ENDTAB
  0
TABLE
  2
LAYER
  5
2
100
AcDbSymbolTable
 70
36
  0
LAYER
  5
10
100
AcDbSymbolTableRecord
100
AcDbLayerTableRecord
  2
0
 70
0
 62
7
  6
CONTINUOUS
370
-3
390
F
  0
LAYER
  5
1FA
100
AcDbSymbolTableRecord
100
AcDbLayerTableRecord
  2
DEFAULT_1
 70
0
 62
7
  6
CENTER
370
-3
390
F
  0
LAYER
  5
1FB
100
AcDbSymbolTableRecord
100
AcDbLayerTableRecord
  2
DEFAULT_2
 70
0
 62
8
  6
HIDDEN
370
-3
390
F
  0
LAYER
  5
1FC
100
AcDbSymbolTableRecord
100
AcDbLayerTableRecord
  2
DEFAULT_3
 70
0
 62
7
  6
PHANTOM
370
-3
390
F
  0
LAYER
  5
1FD
100
AcDbSymbolTableRecord
100
AcDbLayerTableRecord
  2
01___PRT_ALL_DTM_PLN
 70
0
 62
7
  6
CONTINUOUS
370
-3
390
F
  0
LAYER
  5
1FE
100
AcDbSymbolTableRecord
100
AcDbLayerTableRecord
  2
01___PRT_DEF_DTM_PLN
 70
0
 62
7
  6
CONTINUOUS
370
-3
390
F
  0
LAYER
  5
1FF
100
AcDbSymbolTableRecord
100
AcDbLayerTableRecord
  2
02___PRT_ALL_AXES
 70
0
 62
7
  6
CONTINUOUS
370
-3
390
F
  0
LAYER
  5
200
100
AcDbSymbolTableRecord
100
AcDbLayerTableRecord
  2
03___PRT_ALL_CURVES
 70
0
 62
7
  6
CONTINUOUS
370
-3
390
F
  0
LAYER
  5
201
100
AcDbSymbolTableRecord
100
AcDbLayerTableRecord
  2
04___PRT_ALL_DTM_PNT
 70
0
 62
7
  6
CONTINUOUS
370
-3
390
F
  0
LAYER
  5
202
100
AcDbSymbolTableRecord
100
AcDbLayerTableRecord
  2
05___PRT_ALL_DTM_CSYS
 70
0
 62
7
  6
CONTINUOUS
370
-3
390
F
  0
LAYER
  5
203
100
AcDbSymbolTableRecord
100
AcDbLayerTableRecord
  2
05___PRT_DEF_DTM_CSYS
 70
0
 62
7
  6
CONTINUOUS
370
-3
390
F
  0
LAYER
  5
204
100
AcDbSymbolTableRecord
100
AcDbLayerTableRecord
  2
06___PRT_ALL_SURFS
 70
0
 62
7
  6
CONTINUOUS
370
-3
390
F
  0
LAYER
  5
205
100
AcDbSymbolTableRecord
100
AcDbLayerTableRecord
  2
3_ALL_SYMBOLS
 70
0
 62
7
  6
CONTINUOUS
370
-3
390
F
  0
ENDTAB
  0
TABLE
  2
STYLE
  5
3
100
AcDbSymbolTable
 70
1
  0
STYLE
  5
11
100
AcDbSymbolTableRecord
100
AcDbTextStyleTableRecord
  2
STANDARD
 70
0
 40
0.0
 41
1.0
 50
0.0
 71
0
 42
0.2
  3
ar_wgl__.ttf
  4

1001
ACAD
1000
Arial WGL
1071
34
  0
STYLE
  5
206
100
AcDbSymbolTableRecord
100
AcDbTextStyleTableRecord
  2
TEXTSTYLE_1
 70
0
 40
0.0
 41
0.8
 50
0.0
 71
0
 42
0.2
  3
gdt
  4

  0
ENDTAB
  0
TABLE
  2
VIEW
  5
6
100
AcDbSymbolTable
 70
0
  0
ENDTAB
  0
TABLE
  2
UCS
  5
7
100
AcDbSymbolTable
 70
0
  0
ENDTAB
  0
TABLE
  2
APPID
  5
9
100
AcDbSymbolTable
 70
1
  0
APPID
  5
207
100
AcDbSymbolTableRecord
100
AcDbRegAppTableRecord
  2
ACAD
 70
0
  0
ENDTAB
  0
TABLE
  2
BLOCK_RECORD
  5
1
100
AcDbSymbolTable
 70
0
  0
BLOCK_RECORD
  5
208
100
AcDbSymbolTableRecord
100
AcDbBlockTableRecord
  2
*Model_Space
  0
BLOCK_RECORD
  5
209
100
AcDbSymbolTableRecord
100
AcDbBlockTableRecord
  2
*Paper_Space
  0
BLOCK_RECORD
  5
20A
100
AcDbSymbolTableRecord
100
AcDbBlockTableRecord
  2
_FILLED
  0
ENDTAB
  0
TABLE
  2
DIMSTYLE
  5
A
100
AcDbSymbolTable
 70
1
100
AcDbDimStyleTable
 71
0
  0
DIMSTYLE
105
20B
100
AcDbSymbolTableRecord
100
AcDbDimStyleTableRecord
  2
STANDARD
 70
0
  3

  4

 40
1.0
 41
0.1875
 42
0.0625
 43
0.38
 44
0.125
 45
0.0
 46
0.0
 47
0.01
 48
0.01
140
0.15625
141
0.09
142
0.0
143
25.4
144
1.0
145
0.0
146
1.0
147
0.09
 71
0
 72
0
 73
1
 74
1
 75
0
 76
0
 77
0
 78
4
 79
1
170
0
171
1
172
0
173
0
174
0
175
0
176
0
177
0
178
0
270
2
179
2
271
2
272
2
273
2
274
2
275
0
280
0
281
0
282
0
283
1
284
4
285
0
286
0
287
3
288
0
340
11
278
46
341
20A
342
20A
343
20A
344
20A
  0
ENDTAB
  0
ENDSEC
  0
SECTION
  2
BLOCKS
  0
BLOCK
  5
20
100
AcDbEntity
  8
0
100
AcDbBlockBegin
  2
*Model_Space
 70
0
 10
0.0
 20
0.0
 30
0.0
  3
*Model_Space
  1

  0
ENDBLK
  5
21
100
AcDbEntity
  8
0
100
AcDbBlockEnd
  0
BLOCK
  5
1C
100
AcDbEntity
  8
0
100
AcDbBlockBegin
  2
*Paper_Space
 70
0
 10
0.0
 20
0.0
 30
0.0
  3
*Paper_Space
  1

  0
ENDBLK
  5
1D
100
AcDbEntity
  8
0
100
AcDbBlockEnd
  0
BLOCK
  5
20C
100
AcDbEntity
  8
0
100
AcDbBlockBegin
  2
_FILLED
 70
64
 10
0.0
 20
0.0
  3
_FILLED
  1

  0
SOLID
  5
20D
100
AcDbEntity
  8
0
  6
BYBLOCK
 62
0
100
AcDbTrace
 10
0.0
 20
0.0
 11
-1.0
 21
0.1666666667
 12
-1.0
 22
-0.1666666667
 13
-1.0
 23
-0.1666666667
  0
ENDBLK
  5
20E
100
AcDbEntity
  8
0
  6
BYBLOCK
 62
0
100
AcDbBlockEnd
  0
ENDSEC
  0
SECTION
  2
ENTITIES
  0
LINE
  5
20F
100
AcDbEntity
  8
05___PRT_ALL_DTM_CSYS
100
AcDbLine
 62
7
420
16724787
  6
CONTINUOUS
 10
6.8502396617
 20
6.4521055962
 11
6.0802396617
 21
6.4521055962
  0
SOLID
  5
210
100
AcDbEntity
  8
05___PRT_ALL_DTM_CSYS
100
AcDbTrace
 62
7
420
16724787
  6
CONTINUOUS
 10
6.8502396617
 20
6.4521055962
 11
6.6627396617
 21
6.4208555962
 12
6.6627396617
 22
6.4833555962
 13
6.6627396617
 23
6.4833555962
  0
LINE
  5
211
100
AcDbEntity
  8
05___PRT_ALL_DTM_CSYS
100
AcDbLine
 62
7
420
3407667
  6
CONTINUOUS
 10
6.0802396617
 20
7.2221055962
 11
6.0802396617
 21
6.4521055962
  0
SOLID
  5
212
100
AcDbEntity
  8
05___PRT_ALL_DTM_CSYS
100
AcDbTrace
 62
7
420
3407667
  6
CONTINUOUS
 10
6.0802396617
 20
7.2221055962
 11
6.1114896617
 21
7.0346055962
 12
6.0489896617
 22
7.0346055962
 13
6.0489896617
 23
7.0346055962
  0
MTEXT
  5
213
100
AcDbEntity
  8
05___PRT_ALL_DTM_CSYS
100
AcDbMText
 62
7
420
16724787
  6
CONTINUOUS
  7
STANDARD
 71
1
 72
1
 10
6.8942396617
 20
6.6949895247
 30
0.0
 11
1.0
 21
0.0
 31
0.0
 73
2
 44
0.9
  1
X
 40
0.1988839286
 41
0.1848363648
  0
MTEXT
  5
214
100
AcDbEntity
  8
05___PRT_ALL_DTM_CSYS
100
AcDbMText
 62
7
420
3407667
  6
CONTINUOUS
  7
STANDARD
 71
1
 72
1
 10
6.1242396617
 20
7.4649895247
 30
0.0
 11
1.0
 21
0.0
 31
0.0
 73
2
 44
0.9
  1
Y
 40
0.1988839286
 41
0.1848363648
  0
MTEXT
  5
215
100
AcDbEntity
  8
05___PRT_ALL_DTM_CSYS
100
AcDbMText
 62
7
420
3407871
  6
CONTINUOUS
  7
STANDARD
 71
1
 72
1
 10
6.1242396617
 20
6.6949895247
 30
0.0
 11
1.0
 21
0.0
 31
0.0
 73
2
 44
0.9
  1
Z
 40
0.1988839286
 41
0.1693101102
  0
MTEXT
  5
216
100
AcDbEntity
  8
05___PRT_ALL_DTM_CSYS
100
AcDbMText
 62
7
  6
CONTINUOUS
  7
STANDARD
 71
1
 72
1
 10
6.1242396617
 20
6.4081055962
 30
0.0
 11
1.0
 21
0.0
 31
0.0
 73
2
 44
0.9
  1
PRT_CSYS_DEF
 40
0.15625
 41
1.7071328996
  0
LINE
  5
217
100
AcDbEntity
  8
05___PRT_ALL_DTM_CSYS
100
AcDbLine
 62
7
420
16724787
  6
CONTINUOUS
 10
6.8502396617
 20
13.2453007519
 11
6.0802396617
 21
13.2453007519
  0
SOLID
  5
218
100
AcDbEntity
  8
05___PRT_ALL_DTM_CSYS
100
AcDbTrace
 62
7
420
16724787
  6
CONTINUOUS
 10
6.8502396617
 20
13.2453007519
 11
6.6627396617
 21
13.2140507519
 12
6.6627396617
 22
13.2765507519
 13
6.6627396617
 23
13.2765507519
  0
LINE
  5
219
100
AcDbEntity
  8
05___PRT_ALL_DTM_CSYS
100
AcDbLine
 62
7
420
3407871
  6
CONTINUOUS
 10
6.0802396617
 20
12.4753007519
 11
6.0802396617
 21
13.2453007519
  0
SOLID
  5
21A
100
AcDbEntity
  8
05___PRT_ALL_DTM_CSYS
100
AcDbTrace
 62
7
420
3407871
  6
CONTINUOUS
 10
6.0802396617
 20
12.4753007519
 11
6.0489896617
 21
12.6628007519
 12
6.1114896617
 22
12.6628007519
 13
6.1114896617
 23
12.6628007519
  0
MTEXT
  5
21B
100
AcDbEntity
  8
05___PRT_ALL_DTM_CSYS
100
AcDbMText
 62
7
420
16724787
  6
CONTINUOUS
  7
STANDARD
 71
1
 72
1
 10
6.8942396617
 20
13.4881846805
 30
0.0
 11
1.0
 21
0.0
 31
0.0
 73
2
 44
0.9
  1
X
 40
0.1988839286
 41
0.1848363648
  0
MTEXT
  5
21C
100
AcDbEntity
  8
05___PRT_ALL_DTM_CSYS
100
AcDbMText
 62
7
420
3407667
  6
CONTINUOUS
  7
STANDARD
 71
1
 72
1
 10
6.1242396617
 20
13.4881846805
 30
0.0
 11
1.0
 21
0.0
 31
0.0
 73
2
 44
0.9
  1
Y
 40
0.1988839286
 41
0.1848363648
  0
MTEXT
  5
21D
100
AcDbEntity
  8
05___PRT_ALL_DTM_CSYS
100
AcDbMText
 62
7
420
3407871
  6
CONTINUOUS
  7
STANDARD
 71
1
 72
1
 10
6.1242396617
 20
12.4313007519
 30
0.0
 11
1.0
 21
0.0
 31
0.0
 73
2
 44
0.9
  1
Z
 40
0.1988839286
 41
0.1693101102
  0
MTEXT
  5
21E
100
AcDbEntity
  8
05___PRT_ALL_DTM_CSYS
100
AcDbMText
 62
7
  6
CONTINUOUS
  7
STANDARD
 71
1
 72
1
 10
4.329106762
 20
13.2013007519
 30
0.0
 11
1.0
 21
0.0
 31
0.0
 73
2
 44
0.9
  1
PRT_CSYS_DEF
 40
0.15625
 41
1.7071328996
  0
LINE
  5
21F
100
AcDbEntity
  8
05___PRT_ALL_DTM_CSYS
100
AcDbLine
 62
7
420
3407667
  6
CONTINUOUS
 10
14.3147321429
 20
7.2221055962
 11
14.3147321429
 21
6.4521055962
  0
SOLID
  5
220
100
AcDbEntity
  8
05___PRT_ALL_DTM_CSYS
100
AcDbTrace
 62
7
420
3407667
  6
CONTINUOUS
 10
14.3147321429
 20
7.2221055962
 11
14.3459821429
 21
7.0346055962
 12
14.2834821429
 22
7.0346055962
 13
14.2834821429
 23
7.0346055962
  0
LINE
  5
221
100
AcDbEntity
  8
05___PRT_ALL_DTM_CSYS
100
AcDbLine
 62
7
420
3407871
  6
CONTINUOUS
 10
13.5447321429
 20
6.4521055962
 11
14.3147321429
 21
6.4521055962
  0
SOLID
  5
222
100
AcDbEntity
  8
05___PRT_ALL_DTM_CSYS
100
AcDbTrace
 62
7
420
3407871
  6
CONTINUOUS
 10
13.5447321429
 20
6.4521055962
 11
13.7322321429
 21
6.4833555962
 12
13.7322321429
 22
6.4208555962
 13
13.7322321429
 23
6.4208555962
  0
MTEXT
  5
223
100
AcDbEntity
  8
05___PRT_ALL_DTM_CSYS
100
AcDbMText
 62
7
420
16724787
  6
CONTINUOUS
  7
STANDARD
 71
1
 72
1
 10
14.3587321429
 20
6.6949895247
 30
0.0
 11
1.0
 21
0.0
 31
0.0
 73
2
 44
0.9
  1
X
 40
0.1988839286
 41
0.1848363648
  0
MTEXT
  5
224
100
AcDbEntity
  8
05___PRT_ALL_DTM_CSYS
100
AcDbMText
 62
7
420
3407667
  6
CONTINUOUS
  7
STANDARD
 71
1
 72
1
 10
14.3587321429
 20
7.4649895247
 30
0.0
 11
1.0
 21
0.0
 31
0.0
 73
2
 44
0.9
  1
Y
 40
0.1988839286
 41
0.1848363648
  0
MTEXT
  5
225
100
AcDbEntity
  8
05___PRT_ALL_DTM_CSYS
100
AcDbMText
 62
7
420
3407871
  6
CONTINUOUS
  7
STANDARD
 71
1
 72
1
 10
13.315895778
 20
6.6949895247
 30
0.0
 11
1.0
 21
0.0
 31
0.0
 73
2
 44
0.9
  1
Z
 40
0.1988839286
 41
0.1693101102
  0
MTEXT
  5
226
100
AcDbEntity
  8
05___PRT_ALL_DTM_CSYS
100
AcDbMText
 62
7
  6
CONTINUOUS
  7
STANDARD
 71
1
 72
1
 10
14.3587321429
 20
6.4081055962
 30
0.0
 11
1.0
 21
0.0
 31
0.0
 73
2
 44
0.9
  1
PRT_CSYS_DEF
 40
0.15625
 41
1.7071328996
  0
LINE
  5
227
100
AcDbEntity
  8
0
100
AcDbLine
 62
7
  6
CONTINUOUS
 10
0.0
 20
0.0
 11
0.0
 21
17.0
  0
LINE
  5
228
100
AcDbEntity
  8
0
100
AcDbLine
 62
7
  6
CONTINUOUS
 10
0.0
 20
0.0
 11
22.0
 21
0.0
  0
LINE
  5
229
100
AcDbEntity
  8
0
100
AcDbLine
 62
7
  6
CONTINUOUS
 10
0.0
 20
17.0
 11
22.0
 21
17.0
  0
LINE
  5
22A
100
AcDbEntity
  8
0
100
AcDbLine
 62
7
  6
CONTINUOUS
 10
22.0
 20
0.0
 11
22.0
 21
17.0
  0
LINE
  5
22B
100
AcDbEntity
  8
0
100
AcDbLine
 62
7
  6
CONTINUOUS
 10
2.1432317876
 20
6.4521055962
 11
2.1432317876
 21
6.5702158324
  0
LINE
  5
22C
100
AcDbEntity
  8
DEFAULT_2
100
AcDbLine
 62
8
  6
HIDDEN
 10
2.2613420239
 20
6.4521055962
 11
2.2613420239
 21
6.5702158324
  0
LINE
  5
22D
100
AcDbEntity
  8
0
100
AcDbLine
 62
7
  6
CONTINUOUS
 10
2.536932575
 20
6.4521055962
 11
2.536932575
 21
6.5702158324
  0
LINE
  5
22E
100
AcDbEntity
  8
0
100
AcDbLine
 62
7
  6
CONTINUOUS
 10
3.3243341498
 20
6.4521055962
 11
3.3243341498
 21
6.5702158324
  0
LINE
  5
22F
100
AcDbEntity
  8
0
100
AcDbLine
 62
7
  6
CONTINUOUS
 10
4.1117357246
 20
6.4521055962
 11
4.1117357246
 21
6.5702158324
  0
LINE
  5
230
100
AcDbEntity
  8
0
100
AcDbLine
 62
7
  6
CONTINUOUS
 10
4.8991372994
 20
6.4521055962
 11
4.8991372994
 21
6.5702158324
  0
LINE
  5
231
100
AcDbEntity
  8
0
100
AcDbLine
 62
7
  6
CONTINUOUS
 10
5.6865388743
 20
6.4521055962
 11
5.6865388743
 21
6.5702158324
  0
LINE
  5
232
100
AcDbEntity
  8
01___PRT_ALL_DTM_PLN
100
AcDbLine
 62
9
  6
CONTINUOUS
 10
6.0472396617
 20
6.6102229811
 11
6.0472396617
 21
6.4120984474
  0
LINE
  5
233
100
AcDbEntity
  8
01___PRT_ALL_DTM_PLN
100
AcDbLine
 62
7
  6
CONTINUOUS
 10
6.1132396617
 20
6.6102229811
 11
6.1132396617
 21
6.4120984474
  0
LINE
  5
234
100
AcDbEntity
  8
01___PRT_ALL_DTM_PLN
100
AcDbLine
 62
9
  6
CONTINUOUS
 10
10.0572546844
 20
6.4191055962
 11
2.1032246389
 21
6.4191055962
  0
LINE
  5
235
100
AcDbEntity
  8
0
100
AcDbLine
 62
7
  6
CONTINUOUS
 10
2.1432317876
 20
6.4521055962
 11
10.0172475357
 21
6.4521055962
  0
LINE
  5
236
100
AcDbEntity
  8
01___PRT_ALL_DTM_PLN
100
AcDbLine
 62
7
  6
CONTINUOUS
 10
10.0572546844
 20
6.4851055962
 11
2.1032246389
 21
6.4851055962
  0
LINE
  5
237
100
AcDbEntity
  8
0
100
AcDbLine
 62
7
  6
CONTINUOUS
 10
2.1432317876
 20
6.5702158324
 11
10.0172475357
 21
6.5702158324
  0
LINE
  5
238
100
AcDbEntity
  8
0
100
AcDbLine
 62
7
  6
CONTINUOUS
 10
6.4739404491
 20
6.4521055962
 11
6.4739404491
 21
6.5702158324
  0
LINE
  5
239
100
AcDbEntity
  8
0
100
AcDbLine
 62
7
  6
CONTINUOUS
 10
7.2613420239
 20
6.4521055962
 11
7.2613420239
 21
6.5702158324
  0
LINE
  5
23A
100
AcDbEntity
  8
0
100
AcDbLine
 62
7
  6
CONTINUOUS
 10
8.0487435987
 20
6.4521055962
 11
8.0487435987
 21
6.5702158324
  0
LINE
  5
23B
100
AcDbEntity
  8
0
100
AcDbLine
 62
7
  6
CONTINUOUS
 10
8.8361451735
 20
6.4521055962
 11
8.8361451735
 21
6.5702158324
  0
LINE
  5
23C
100
AcDbEntity
  8
0
100
AcDbLine
 62
7
  6
CONTINUOUS
 10
9.6235467483
 20
6.4521055962
 11
9.6235467483
 21
6.5702158324
  0
LINE
  5
23D
100
AcDbEntity
  8
DEFAULT_2
100
AcDbLine
 62
8
  6
HIDDEN
 10
9.8991372994
 20
6.4521055962
 11
9.8991372994
 21
6.5702158324
  0
LINE
  5
23E
100
AcDbEntity
  8
0
100
AcDbLine
 62
7
  6
CONTINUOUS
 10
10.0172475357
 20
6.4521055962
 11
10.0172475357
 21
6.5702158324
  0
LINE
  5
23F
100
AcDbEntity
  8
0
100
AcDbLine
 62
7
  6
CONTINUOUS
 10
2.1432317876
 20
13.835851933
 11
2.1432317876
 21
13.5602613818
  0
LINE
  5
240
100
AcDbEntity
  8
0
100
AcDbLine
 62
7
  6
CONTINUOUS
 10
2.1432317876
 20
12.930340122
 11
2.1432317876
 21
12.6547495708
  0
LINE
  5
241
100
AcDbEntity
  8
0
100
AcDbLine
 62
7
  6
CONTINUOUS
 10
2.2613420239
 20
12.930340122
 11
2.2613420239
 21
13.5602613818
  0
LINE
  5
242
100
AcDbEntity
  8
0
100
AcDbLine
 62
7
  6
CONTINUOUS
 10
2.536932575
 20
13.9539621692
 11
2.536932575
 21
13.835851933
  0
LINE
  5
243
100
AcDbEntity
  8
0
100
AcDbLine
 62
7
  6
CONTINUOUS
 10
2.536932575
 20
12.5366393346
 11
2.536932575
 21
12.6547495708
  0
LINE
  5
244
100
AcDbEntity
  8
0
100
AcDbLine
 62
7
  6
CONTINUOUS
 10
3.3243341498
 20
13.9539621692
 11
3.3243341498
 21
13.835851933
  0
LINE
  5
245
100
AcDbEntity
  8
0
100
AcDbLine
 62
7
  6
CONTINUOUS
 10
3.3243341498
 20
12.5366393346
 11
3.3243341498
 21
12.6547495708
  0
LINE
  5
246
100
AcDbEntity
  8
0
100
AcDbLine
 62
7
  6
CONTINUOUS
 10
4.1117357246
 20
13.9539621692
 11
4.1117357246
 21
13.835851933
  0
LINE
  5
247
100
AcDbEntity
  8
0
100
AcDbLine
 62
7
  6
CONTINUOUS
 10
4.1117357246
 20
12.5366393346
 11
4.1117357246
 21
12.6547495708
  0
LINE
  5
248
100
AcDbEntity
  8
0
100
AcDbLine
 62
7
  6
CONTINUOUS
 10
4.8991372994
 20
13.9539621692
 11
4.8991372994
 21
13.835851933
  0
LINE
  5
249
100
AcDbEntity
  8
0
100
AcDbLine
 62
7
  6
CONTINUOUS
 10
4.8991372994
 20
12.5366393346
 11
4.8991372994
 21
12.6547495708
  0
LINE
  5
24A
100
AcDbEntity
  8
0
100
AcDbLine
 62
7
  6
CONTINUOUS
 10
2.536932575
 20
12.5366393346
 11
3.3243341498
 21
12.5366393346
  0
LINE
  5
24B
100
AcDbEntity
  8
0
100
AcDbLine
 62
7
  6
CONTINUOUS
 10
4.1117357246
 20
12.5366393346
 11
4.8991372994
 21
12.5366393346
  0
LINE
  5
24C
100
AcDbEntity
  8
0
100
AcDbLine
 62
7
  6
CONTINUOUS
 10
5.6865388743
 20
12.5366393346
 11
6.4739404491
 21
12.5366393346
  0
LINE
  5
24D
100
AcDbEntity
  8
0
100
AcDbLine
 62
7
  6
CONTINUOUS
 10
7.2613420239
 20
12.5366393346
 11
8.0487435987
 21
12.5366393346
  0
LINE
  5
24E
100
AcDbEntity
  8
0
100
AcDbLine
 62
7
  6
CONTINUOUS
 10
8.8361451735
 20
12.5366393346
 11
9.6235467483
 21
12.5366393346
  0
LINE
  5
24F
100
AcDbEntity
  8
0
100
AcDbLine
 62
7
  6
CONTINUOUS
 10
10.0172475357
 20
12.6547495708
 11
9.6235467483
 21
12.6547495708
  0
LINE
  5
250
100
AcDbEntity
  8
0
100
AcDbLine
 62
7
  6
CONTINUOUS
 10
5.6865388743
 20
12.6547495708
 11
4.8991372994
 21
12.6547495708
  0
LINE
  5
251
100
AcDbEntity
  8
0
100
AcDbLine
 62
7
  6
CONTINUOUS
 10
4.1117357246
 20
12.6547495708
 11
3.3243341498
 21
12.6547495708
  0
LINE
  5
252
100
AcDbEntity
  8
0
100
AcDbLine
 62
7
  6
CONTINUOUS
 10
2.1432317876
 20
12.6547495708
 11
2.536932575
 21
12.6547495708
  0
LINE
  5
253
100
AcDbEntity
  8
0
100
AcDbLine
 62
7
  6
CONTINUOUS
 10
6.4739404491
 20
12.6547495708
 11
7.2613420239
 21
12.6547495708
  0
LINE
  5
254
100
AcDbEntity
  8
0
100
AcDbLine
 62
7
  6
CONTINUOUS
 10
8.0487435987
 20
12.6547495708
 11
8.8361451735
 21
12.6547495708
  0
LINE
  5
255
100
AcDbEntity
  8
0
100
AcDbLine
 62
7
  6
CONTINUOUS
 10
5.6865388743
 20
13.9539621692
 11
5.6865388743
 21
13.835851933
  0
LINE
  5
256
100
AcDbEntity
  8
0
100
AcDbLine
 62
7
  6
CONTINUOUS
 10
5.6865388743
 20
12.5366393346
 11
5.6865388743
 21
12.6547495708
  0
LINE
  5
257
100
AcDbEntity
  8
0
100
AcDbLine
 62
7
  6
CONTINUOUS
 10
10.0172475357
 20
12.930340122
 11
9.8991372994
 21
12.930340122
  0
LINE
  5
258
100
AcDbEntity
  8
0
100
AcDbLine
 62
7
  6
CONTINUOUS
 10
2.1432317876
 20
12.930340122
 11
2.2613420239
 21
12.930340122
  0
LINE
  5
259
100
AcDbEntity
  8
01___PRT_ALL_DTM_PLN
100
AcDbLine
 62
9
  6
CONTINUOUS
 10
6.0472396617
 20
13.993969318
 11
6.0472396617
 21
12.4966321858
  0
LINE
  5
25A
100
AcDbEntity
  8
01___PRT_ALL_DTM_PLN
100
AcDbLine
 62
7
  6
CONTINUOUS
 10
6.1132396617
 20
13.993969318
 11
6.1132396617
 21
12.4966321858
  0
LINE
  5
25B
100
AcDbEntity
  8
01___PRT_ALL_DTM_PLN
100
AcDbLine
 62
7
  6
CONTINUOUS
 10
10.0572546844
 20
13.2123007519
 11
2.1032246389
 21
13.2123007519
  0
LINE
  5
25C
100
AcDbEntity
  8
01___PRT_ALL_DTM_PLN
100
AcDbLine
 62
9
  6
CONTINUOUS
 10
10.0572546844
 20
13.2783007519
 11
2.1032246389
 21
13.2783007519
  0
LINE
  5
25D
100
AcDbEntity
  8
0
100
AcDbLine
 62
7
  6
CONTINUOUS
 10
6.4739404491
 20
13.9539621692
 11
6.4739404491
 21
13.835851933
  0
LINE
  5
25E
100
AcDbEntity
  8
0
100
AcDbLine
 62
7
  6
CONTINUOUS
 10
6.4739404491
 20
12.5366393346
 11
6.4739404491
 21
12.6547495708
  0
LINE
  5
25F
100
AcDbEntity
  8
0
100
AcDbLine
 62
7
  6
CONTINUOUS
 10
10.0172475357
 20
13.5602613818
 11
9.8991372994
 21
13.5602613818
  0
LINE
  5
260
100
AcDbEntity
  8
0
100
AcDbLine
 62
7
  6
CONTINUOUS
 10
2.1432317876
 20
13.5602613818
 11
2.2613420239
 21
13.5602613818
  0
LINE
  5
261
100
AcDbEntity
  8
0
100
AcDbLine
 62
7
  6
CONTINUOUS
 10
10.0172475357
 20
13.835851933
 11
9.6235467483
 21
13.835851933
  0
LINE
  5
262
100
AcDbEntity
  8
0
100
AcDbLine
 62
7
  6
CONTINUOUS
 10
5.6865388743
 20
13.835851933
 11
4.8991372994
 21
13.835851933
  0
LINE
  5
263
100
AcDbEntity
  8
0
100
AcDbLine
 62
7
  6
CONTINUOUS
 10
4.1117357246
 20
13.835851933
 11
3.3243341498
 21
13.835851933
  0
LINE
  5
264
100
AcDbEntity
  8
0
100
AcDbLine
 62
7
  6
CONTINUOUS
 10
2.1432317876
 20
13.835851933
 11
2.536932575
 21
13.835851933
  0
LINE
  5
265
100
AcDbEntity
  8
0
100
AcDbLine
 62
7
  6
CONTINUOUS
 10
6.4739404491
 20
13.835851933
 11
7.2613420239
 21
13.835851933
  0
LINE
  5
266
100
AcDbEntity
  8
0
100
AcDbLine
 62
7
  6
CONTINUOUS
 10
8.0487435987
 20
13.835851933
 11
8.8361451735
 21
13.835851933
  0
LINE
  5
267
100
AcDbEntity
  8
0
100
AcDbLine
 62
7
  6
CONTINUOUS
 10
9.6235467483
 20
13.9539621692
 11
8.8361451735
 21
13.9539621692
  0
LINE
  5
268
100
AcDbEntity
  8
0
100
AcDbLine
 62
7
  6
CONTINUOUS
 10
8.0487435987
 20
13.9539621692
 11
7.2613420239
 21
13.9539621692
  0
LINE
  5
269
100
AcDbEntity
  8
0
100
AcDbLine
 62
7
  6
CONTINUOUS
 10
6.4739404491
 20
13.9539621692
 11
5.6865388743
 21
13.9539621692
  0
LINE
  5
26A
100
AcDbEntity
  8
0
100
AcDbLine
 62
7
  6
CONTINUOUS
 10
4.8991372994
 20
13.9539621692
 11
4.1117357246
 21
13.9539621692
  0
LINE
  5
26B
100
AcDbEntity
  8
0
100
AcDbLine
 62
7
  6
CONTINUOUS
 10
3.3243341498
 20
13.9539621692
 11
2.536932575
 21
13.9539621692
  0
LINE
  5
26C
100
AcDbEntity
  8
0
100
AcDbLine
 62
7
  6
CONTINUOUS
 10
7.2613420239
 20
13.9539621692
 11
7.2613420239
 21
13.835851933
  0
LINE
  5
26D
100
AcDbEntity
  8
0
100
AcDbLine
 62
7
  6
CONTINUOUS
 10
7.2613420239
 20
12.5366393346
 11
7.2613420239
 21
12.6547495708
  0
LINE
  5
26E
100
AcDbEntity
  8
0
100
AcDbLine
 62
7
  6
CONTINUOUS
 10
8.0487435987
 20
13.9539621692
 11
8.0487435987
 21
13.835851933
  0
LINE
  5
26F
100
AcDbEntity
  8
0
100
AcDbLine
 62
7
  6
CONTINUOUS
 10
8.0487435987
 20
12.5366393346
 11
8.0487435987
 21
12.6547495708
  0
LINE
  5
270
100
AcDbEntity
  8
0
100
AcDbLine
 62
7
  6
CONTINUOUS
 10
8.8361451735
 20
13.9539621692
 11
8.8361451735
 21
13.835851933
  0
LINE
  5
271
100
AcDbEntity
  8
0
100
AcDbLine
 62
7
  6
CONTINUOUS
 10
8.8361451735
 20
12.5366393346
 11
8.8361451735
 21
12.6547495708
  0
LINE
  5
272
100
AcDbEntity
  8
0
100
AcDbLine
 62
7
  6
CONTINUOUS
 10
9.6235467483
 20
13.9539621692
 11
9.6235467483
 21
13.835851933
  0
LINE
  5
273
100
AcDbEntity
  8
0
100
AcDbLine
 62
7
  6
CONTINUOUS
 10
9.6235467483
 20
12.5366393346
 11
9.6235467483
 21
12.6547495708
  0
LINE
  5
274
100
AcDbEntity
  8
0
100
AcDbLine
 62
7
  6
CONTINUOUS
 10
9.8991372994
 20
12.930340122
 11
9.8991372994
 21
13.5602613818
  0
LINE
  5
275
100
AcDbEntity
  8
0
100
AcDbLine
 62
7
  6
CONTINUOUS
 10
10.0172475357
 20
12.6547495708
 11
10.0172475357
 21
12.930340122
  0
LINE
  5
276
100
AcDbEntity
  8
0
100
AcDbLine
 62
7
  6
CONTINUOUS
 10
10.0172475357
 20
13.5602613818
 11
10.0172475357
 21
13.835851933
  0
LINE
  5
277
100
AcDbEntity
  8
0
100
AcDbLine
 62
7
  6
CONTINUOUS
 10
13.6060707255
 20
6.4521055962
 11
13.6060707255
 21
6.5702158324
  0
LINE
  5
278
100
AcDbEntity
  8
0
100
AcDbLine
 62
7
  6
CONTINUOUS
 10
13.7241809618
 20
6.4521055962
 11
13.7241809618
 21
6.5702158324
  0
LINE
  5
279
100
AcDbEntity
  8
0
100
AcDbLine
 62
7
  6
CONTINUOUS
 10
13.9997715129
 20
6.4521055962
 11
13.9997715129
 21
6.5702158324
  0
LINE
  5
27A
100
AcDbEntity
  8
01___PRT_ALL_DTM_PLN
100
AcDbLine
 62
9
  6
CONTINUOUS
 10
15.0634007089
 20
6.4191055962
 11
13.5660635768
 21
6.4191055962
  0
LINE
  5
27B
100
AcDbEntity
  8
0
100
AcDbLine
 62
7
  6
CONTINUOUS
 10
13.6060707255
 20
6.4521055962
 11
15.0233935602
 21
6.4521055962
  0
LINE
  5
27C
100
AcDbEntity
  8
01___PRT_ALL_DTM_PLN
100
AcDbLine
 62
7
  6
CONTINUOUS
 10
14.2817321429
 20
6.6102229811
 11
14.2817321429
 21
6.4120984474
  0
LINE
  5
27D
100
AcDbEntity
  8
01___PRT_ALL_DTM_PLN
100
AcDbLine
 62
7
  6
CONTINUOUS
 10
15.0634007089
 20
6.4851055962
 11
13.5660635768
 21
6.4851055962
  0
LINE
  5
27E
100
AcDbEntity
  8
01___PRT_ALL_DTM_PLN
100
AcDbLine
 62
9
  6
CONTINUOUS
 10
14.3477321429
 20
6.6102229811
 11
14.3477321429
 21
6.4120984474
  0
LINE
  5
27F
100
AcDbEntity
  8
0
100
AcDbLine
 62
7
  6
CONTINUOUS
 10
13.6060707255
 20
6.5702158324
 11
15.0233935602
 21
6.5702158324
  0
LINE
  5
280
100
AcDbEntity
  8
0
100
AcDbLine
 62
7
  6
CONTINUOUS
 10
14.6296927728
 20
6.4521055962
 11
14.6296927728
 21
6.5702158324
  0
LINE
  5
281
100
AcDbEntity
  8
0
100
AcDbLine
 62
7
  6
CONTINUOUS
 10
14.905283324
 20
6.4521055962
 11
14.905283324
 21
6.5702158324
  0
LINE
  5
282
100
AcDbEntity
  8
0
100
AcDbLine
 62
7
  6
CONTINUOUS
 10
15.0233935602
 20
6.4521055962
 11
15.0233935602
 21
6.5702158324
  0
ENDSEC
  0
SECTION
  2
OBJECTS
  0
DICTIONARY
  5
C
100
AcDbDictionary
280
0
281
1
  3
ACAD_GROUP
350
D
  3
ACAD_MLINESTYLE
350
17
  3
ACAD_LAYOUT
350
1A
  3
ACAD_PLOTSETTINGS
350
19
  3
ACAD_PLOTSTYLENAME
350
E
  0
DICTIONARY
  5
D
102
{ACAD_REACTORS
330
C
102
}
100
AcDbDictionary
280
0
281
1
  0
ACDBDICTIONARYWDFLT
  5
E
102
{ACAD_REACTORS
330
C
102
}
100
AcDbDictionary
281
1
  3
Normal
350
F
100
AcDbDictionaryWithDefault
340
F
  0
DICTIONARY
  5
17
102
{ACAD_REACTORS
330
C
102
}
100
AcDbDictionary
280
0
281
1
  3
Standard
350
18
  0
DICTIONARY
  5
19
102
{ACAD_REACTORS
330
C
102
}
100
AcDbDictionary
281
1
  0
DICTIONARY
  5
1A
102
{ACAD_REACTORS
330
C
102
}
100
AcDbDictionary
281
1
  3
Model
350
283
  3
Layout1
350
284
  0
ACDBPLACEHOLDER
  5
F
102
{ACAD_REACTORS
330
E
102
}
  0
MLINESTYLE
  5
18
102
{ACAD_REACTORS
330
17
102
}
100
AcDbMlineStyle
  2
STANDARD
 70
0
  3

 62
256
 51
90.0
 52
90.0
 71
2
 49
0.5
 62
256
  6
BYLAYER
 49
-0.5
 62
256
  6
BYLAYER
  0
LAYOUT
  5
283
102
{ACAD_REACTORS
330
1A
102
}
100
AcDbPlotSettings
  1

  2
none_device
  4
ANSI_C_(22.00_x_17.00_Inches)
  6

 40
0.0
 41
0.0
 42
0.0
 43
0.0
 44
558.8
 45
431.8
 46
0.0
 47
0.0
 48
0.0
 49
0.0
140
0.0
141
0.0
142
1.0
143
1.0
 70
1024
 72
0
 73
0
 74
0
  7

 75
0
147
1.0
148
0.0
149
0.0
100
AcDbLayout
  1
Model
 70
0
 71
0
 10
0.0
 20
0.0
 11
22.0
 21
17.0
 12
0.0
 22
0.0
 32
0.0
 14
0.0
 24
0.0
 34
0.0
 15
0.0
 25
0.0
 35
0.0
146
0.0
 13
0.0
 23
0.0
 33
0.0
 16
1.0
 26
0.0
 36
0.0
 17
0.0
 27
1.0
 37
0.0
 76
0
330
208
345
0
346
0
  0
LAYOUT
  5
284
102
{ACAD_REACTORS
330
1A
102
}
100
AcDbPlotSettings
  1

  2
none_device
  4
ANSI_C_(22.00_x_17.00_Inches)
  6

 40
0.0
 41
0.0
 42
0.0
 43
0.0
 44
558.8
 45
431.8
 46
0.0
 47
0.0
 48
0.0
 49
0.0
140
0.0
141
0.0
142
1.0
143
1.0
 70
0
 72
0
 73
0
 74
0
  7

 75
0
147
1.0
148
0.0
149
0.0
100
AcDbLayout
  1
Layout1
 70
0
 71
1
 10
0.0
 20
0.0
 11
22.0
 21
17.0
 12
0.0
 22
0.0
 32
0.0
 14
0.0
 24
0.0
 34
0.0
 15
0.0
 25
0.0
 35
0.0
146
0.0
 13
0.0
 23
0.0
 33
0.0
 16
1.0
 26
0.0
 36
0.0
 17
0.0
 27
1.0
 37
0.0
 76
0
330
209
345
0
346
0
  0
ENDSEC
  0
EOF
